<svg width="151" height="38" viewBox="0 0 151 38" fill="none" xmlns="http://www.w3.org/2000/svg">
<path d="M79.6069 11.8943C77.6416 10.2864 74.7581 9.4819 70.9563 9.48088H62V28.5207H70.6901C74.4746 28.5207 77.3977 27.6939 79.4593 26.0403C81.5209 24.3867 82.5517 22.0402 82.5517 19.0008C82.5517 15.8721 81.5701 13.5033 79.6069 11.8943ZM70.8225 24.0346H67.5445V13.9608H71.0628C74.9163 13.9608 76.843 15.6317 76.843 18.9734C76.8461 22.3476 74.8392 24.0346 70.8225 24.0346Z" fill="#121212"/>
<path d="M91.4016 9.48088H85.804V28.5207H91.4016V9.48088Z" fill="#121212"/>
<path d="M99.6916 27.8267C101.325 28.6089 103.262 29 105.502 29C108.505 29 110.904 28.3405 112.699 27.0217C114.493 25.7029 115.516 23.854 115.765 21.475H110.113C109.881 22.5047 109.397 23.2656 108.66 23.7576C107.923 24.2496 106.906 24.4941 105.609 24.4911C103.939 24.4911 102.646 24.0112 101.73 23.0515C100.814 22.0918 100.358 20.7406 100.361 18.9977C100.361 17.2731 100.814 15.9263 101.719 14.9575C102.625 13.9887 103.887 13.5043 105.505 13.5043C106.678 13.5043 107.606 13.731 108.29 14.1845C108.975 14.6379 109.486 15.3714 109.824 16.3849L115.421 15.7442C114.871 13.486 113.773 11.7969 112.13 10.6769C110.486 9.55691 108.286 8.99895 105.531 9.003C103.238 9.003 101.27 9.42097 99.6277 10.2569C98.0494 11.0303 96.7364 12.2554 95.8553 13.7766C94.9852 15.2882 94.5497 17.0306 94.5487 19.0038C94.5487 21.0835 94.9974 22.8791 95.8949 24.3907C96.7847 25.8931 98.1083 27.091 99.6916 27.8267Z" fill="#121212"/>
<path d="M124.401 9.48088H118.803V28.5207H124.401V9.48088Z" fill="#121212"/>
<path d="M150.231 19.0008C150.231 16.9028 149.769 15.1026 148.845 13.6002C147.911 12.0911 146.546 10.8972 144.927 10.1732C143.238 9.39108 141.248 9 138.955 9C136.575 9 134.527 9.40884 132.811 10.2265C131.095 11.0442 129.789 12.2042 128.893 13.7067C127.995 15.2102 127.546 16.9748 127.546 19.0008C127.546 21.0987 128.008 22.8989 128.932 24.4014C129.865 25.9107 131.23 27.1042 132.851 27.8268C134.539 28.6089 136.53 29 138.822 29C141.203 29 143.251 28.5912 144.966 27.7735C146.681 26.9558 147.987 25.7958 148.885 24.2933C149.782 22.7919 150.231 21.0277 150.231 19.0008ZM142.969 23.0546C141.999 24.0133 140.636 24.4932 138.877 24.4942C137.119 24.4952 135.759 24.0153 134.799 23.0546C133.84 22.0949 133.36 20.7436 133.359 19.0008C133.358 17.2579 133.842 15.9066 134.811 14.9469C135.781 13.9862 137.145 13.5063 138.903 13.5073C140.661 13.5084 142.021 13.9882 142.981 14.9469C143.941 15.9076 144.422 17.2589 144.422 19.0008C144.422 20.7426 143.937 22.0939 142.969 23.0546Z" fill="#121212"/>
<path d="M10.7625 38C16.7064 38 21.525 33.1795 21.525 27.2332C21.525 21.2869 16.7064 16.4664 10.7625 16.4664C4.81853 16.4664 0 21.2869 0 27.2332C0 33.1795 4.81853 38 10.7625 38Z" fill="#121212"/>
<path d="M43.0488 0H24.0565V38H43.0488V0Z" fill="#121212"/>
</svg>
